<?xml version="1.0" standalone="no"?>
<!DOCTYPE svg PUBLIC "-//W3C//DTD SVG 20010904//EN"
 "http://www.w3.org/TR/2001/REC-SVG-20010904/DTD/svg10.dtd">
<svg version="1.0" xmlns="http://www.w3.org/2000/svg"
 width="500.000000pt" height="500.000000pt" viewBox="0 0 500.000000 500.000000"
 preserveAspectRatio="xMidYMid meet">

<g transform="translate(0.000000,500.000000) scale(0.100000,-0.100000)"
fill="#000000" stroke="none">
<path d="M0 2500 l0 -2500 2500 0 2500 0 0 2500 0 2500 -2500 0 -2500 0 0
-2500z m3513 1013 c131 -62 233 -190 272 -339 23 -90 20 -244 -8 -325 -47
-137 -143 -253 -260 -314 -31 -17 -57 -34 -57 -39 0 -4 15 -29 33 -55 19 -25
36 -50 39 -56 4 -6 -26 -10 -80 -10 -106 0 -157 -20 -232 -93 l-51 -49 -48 71
c-83 122 -81 117 -81 293 0 87 4 164 8 171 11 17 68 32 123 32 91 0 177 50
216 125 36 68 9 183 -56 238 -55 46 -91 52 -301 52 l-195 0 -3 -582 -2 -583
-136 0 -136 0 32 37 c18 20 48 69 66 107 51 108 56 181 52 809 l-3 548 370 -3
370 -3 68 -32z m-1041 -1653 c33 -91 32 -90 9 -90 -10 0 -21 9 -24 20 -4 14
-14 20 -35 20 -21 0 -31 -6 -35 -20 -5 -19 -37 -29 -37 -12 0 16 43 137 53
150 21 27 42 6 69 -68z m516 74 c30 -8 23 -29 -10 -30 -51 -2 -59 -11 -56 -56
3 -39 6 -43 31 -46 19 -2 27 1 27 12 0 9 -7 16 -15 16 -8 0 -15 7 -15 15 0 10
10 15 30 15 29 0 30 -2 30 -45 l0 -45 -45 0 c-58 0 -85 25 -85 78 0 40 12 63
45 80 23 13 32 14 63 6z m-704 -27 c8 -13 7 -24 -5 -46 -15 -26 -15 -30 2 -52
23 -30 24 -39 1 -39 -10 0 -26 14 -35 30 -10 17 -22 30 -28 30 -5 0 -9 -13 -9
-30 0 -23 -4 -30 -20 -30 -18 0 -20 7 -20 81 l0 80 51 -3 c37 -2 55 -8 63 -21z
m395 -3 c48 -62 8 -134 -74 -134 l-45 0 0 80 0 80 49 0 c42 0 53 -4 70 -26z
m131 -54 c0 -73 -2 -80 -20 -80 -18 0 -20 7 -20 80 0 73 2 80 20 80 18 0 20
-7 20 -80z m310 31 c0 -64 7 -81 35 -81 26 0 35 22 35 88 0 31 4 42 15 42 22
0 21 -117 -2 -142 -18 -20 -64 -24 -94 -8 -16 9 -19 22 -19 80 0 56 3 70 15
70 11 0 15 -12 15 -49z m278 37 c-3 -7 -17 -14 -31 -16 -35 -4 -36 -32 -2 -32
16 0 25 -6 25 -15 0 -9 -9 -15 -25 -15 -36 0 -35 -38 2 -42 14 -2 28 -9 31
-15 2 -9 -11 -13 -47 -13 l-51 0 0 80 0 80 51 0 c36 0 49 -4 47 -12z m172 -3
c0 -8 -9 -15 -20 -15 -18 0 -20 -7 -20 -65 0 -58 -2 -65 -20 -65 -18 0 -20 7
-20 65 0 58 -2 65 -20 65 -11 0 -20 7 -20 15 0 12 13 15 60 15 47 0 60 -3 60
-15z m-2112 -237 c15 -15 16 -64 1 -73 -6 -4 -8 -13 -5 -21 7 -17 6 -17 -32 2
-30 15 -37 29 -32 64 5 37 44 52 68 28z m97 -73 c16 0 21 9 26 45 l7 45 -2
-50 c-1 -49 -2 -50 -31 -50 -29 0 -30 1 -31 50 l-2 50 7 -45 c5 -36 10 -45 26
-45z m138 30 c9 -25 12 -45 6 -45 -5 0 -9 7 -9 15 0 21 -37 19 -49 -2 -16 -27
-13 -4 5 44 9 23 20 40 24 38 5 -3 15 -25 23 -50z m86 21 c26 -42 27 -59 1
-26 l-20 25 0 -32 c0 -18 -4 -33 -10 -33 -11 0 -14 83 -3 93 9 10 10 10 32
-27z m37 -64 c-11 -10 -12 3 -7 53 l6 50 3 -49 c2 -26 1 -51 -2 -54z m105 88
c22 -12 26 -59 7 -78 -7 -7 -22 -12 -35 -12 -21 0 -23 4 -23 50 0 53 10 61 51
40z m269 0 c0 -5 -9 -10 -20 -10 -11 0 -20 -4 -20 -10 0 -5 7 -10 15 -10 8 0
15 -4 15 -10 0 -5 -7 -10 -15 -10 -24 0 -17 -28 8 -33 16 -3 13 -5 -10 -6 -32
-1 -33 0 -33 42 0 24 3 47 7 50 10 11 53 8 53 -3z m166 -2 c5 -7 2 -9 -8 -5
-24 9 -50 -16 -46 -43 2 -16 12 -27 28 -31 l25 -7 -28 -1 c-44 -2 -57 56 -19
87 20 15 39 15 48 0z m108 -4 c32 -31 14 -84 -29 -84 -27 0 -45 18 -45 46 0
25 24 54 45 54 7 0 21 -7 29 -16z m117 -3 c20 -16 22 -23 14 -47 -8 -23 -17
-30 -43 -32 -32 -3 -32 -3 -32 41 0 62 18 73 61 38z m109 9 c0 -5 -9 -10 -20
-10 -11 0 -20 -4 -20 -10 0 -5 9 -10 20 -10 11 0 20 -4 20 -10 0 -5 -9 -10
-20 -10 -27 0 -25 -28 3 -33 19 -4 18 -4 -5 -6 -27 -1 -28 1 -28 49 0 47 2 50
25 50 14 0 25 -4 25 -10z m154 -3 c21 -16 12 -47 -15 -47 -12 0 -19 -7 -19
-20 0 -11 -4 -20 -10 -20 -11 0 -14 83 -3 93 10 11 27 8 47 -6z m107 -3 c10
-12 10 -20 1 -34 -7 -12 -8 -21 -2 -25 6 -3 10 -12 9 -18 0 -7 -7 -2 -16 11
-8 12 -19 22 -24 22 -4 0 -10 -10 -12 -22 -2 -13 -5 1 -6 30 -1 45 2 52 18 52
10 0 24 -7 32 -16z m99 6 c0 -5 -7 -10 -15 -10 -8 0 -15 -4 -15 -10 0 -5 7
-10 15 -10 8 0 15 -4 15 -10 0 -5 -7 -10 -15 -10 -24 0 -17 -28 8 -33 16 -3
13 -5 -10 -6 -32 -1 -33 0 -33 42 0 24 3 47 7 50 10 11 43 8 43 -3z m85 -27
l25 -38 0 33 c0 17 5 32 10 32 6 0 10 -20 10 -45 0 -55 -13 -57 -43 -7 l-22
37 -6 -40 c-6 -39 -6 -39 -8 13 0 28 1 52 4 52 2 0 16 -17 30 -37z m146 18
c20 -16 22 -23 14 -47 -8 -23 -17 -30 -43 -32 -32 -3 -32 -3 -32 41 0 62 18
73 61 38z m169 -28 c-18 -56 -27 -60 -44 -18 -22 51 -19 69 3 22 l18 -37 12
41 c7 22 15 39 18 36 3 -3 0 -23 -7 -44z m57 -30 c-2 -16 -4 -3 -4 27 0 30 2
43 4 28 2 -16 2 -40 0 -55z m103 67 c0 -5 -9 -10 -20 -10 -11 0 -20 -4 -20
-10 0 -5 9 -10 20 -10 11 0 20 -4 20 -10 0 -5 -9 -10 -20 -10 -27 0 -25 -28 3
-33 19 -4 18 -4 -5 -6 -27 -1 -28 1 -28 49 0 47 2 50 25 50 14 0 25 -4 25 -10z
m-1550 -39 c0 -33 4 -40 23 -44 16 -3 13 -5 -10 -6 -33 -1 -33 0 -33 44 0 25
5 45 10 45 6 0 10 -18 10 -39z"/>
<path d="M2417 1879 c-10 -35 -9 -39 8 -39 16 0 18 14 6 44 -7 18 -8 18 -14
-5z"/>
<path d="M2210 1879 c0 -25 33 -22 38 4 2 12 -3 17 -17 17 -15 0 -21 -6 -21
-21z"/>
<path d="M2600 1850 c0 -41 3 -50 18 -50 24 0 42 19 42 46 0 38 -11 54 -36 54
-22 0 -24 -4 -24 -50z"/>
<path d="M1410 1666 c-6 -8 -10 -25 -8 -38 2 -17 10 -23 28 -23 18 0 26 6 28
23 3 22 -13 52 -28 52 -4 0 -13 -7 -20 -14z"/>
<path d="M1656 1645 c-3 -9 0 -15 9 -15 16 0 20 16 6 24 -5 3 -11 -1 -15 -9z"/>
<path d="M1880 1634 c0 -28 4 -35 16 -32 40 8 44 68 4 68 -16 0 -20 -6 -20
-36z"/>
<path d="M2415 1663 c-19 -19 -16 -42 8 -57 14 -9 21 -7 32 7 27 36 -9 82 -40
50z"/>
<path d="M2540 1635 c0 -39 22 -48 40 -16 13 26 3 51 -21 51 -15 0 -19 -7 -19
-35z"/>
<path d="M2810 1655 c0 -8 7 -15 15 -15 8 0 15 7 15 15 0 8 -7 15 -15 15 -8 0
-15 -7 -15 -15z"/>
<path d="M2910 1655 c0 -10 7 -15 18 -13 21 4 19 22 -2 26 -10 2 -16 -3 -16
-13z"/>
<path d="M3240 1635 c0 -39 22 -48 40 -16 13 26 3 51 -21 51 -15 0 -19 -7 -19
-35z"/>
</g>
</svg>
